<mxfile host="app.diagrams.net" modified="2024-03-07T20:47:03.424Z" agent="Mozilla/5.0 (X11; Ubuntu; Linux x86_64; rv:123.0) Gecko/20100101 Firefox/123.0" etag="fKDdIisePLR1z2KEIDnX" version="24.0.2" type="device">
  <diagram name="Page-1" id="MgaLda9eh2sP7ySxqYMm">
    <mxGraphModel dx="2004" dy="795" grid="1" gridSize="10" guides="1" tooltips="1" connect="1" arrows="1" fold="1" page="1" pageScale="1" pageWidth="850" pageHeight="1100" math="0" shadow="0">
      <root>
        <mxCell id="0" />
        <mxCell id="1" parent="0" />
        <mxCell id="cGY7G1IfKFJ4hQpmYUBs-1" value="user" style="shape=umlActor;verticalLabelPosition=bottom;verticalAlign=top;html=1;outlineConnect=0;" parent="1" vertex="1">
          <mxGeometry x="670" y="80" width="30" height="60" as="geometry" />
        </mxCell>
        <mxCell id="cGY7G1IfKFJ4hQpmYUBs-2" value="Angular Frontend&lt;br&gt;&lt;i&gt;Hosts webpage to be loaded into browser&lt;br&gt;&lt;/i&gt;" style="rounded=0;whiteSpace=wrap;html=1;" parent="1" vertex="1">
          <mxGeometry x="325" y="270" width="170" height="90" as="geometry" />
        </mxCell>
        <mxCell id="cGY7G1IfKFJ4hQpmYUBs-5" value="C# backend&lt;br&gt;&lt;i&gt;Simulates planetary systems&lt;br&gt;Exposes API for creating and editing new planet systems&lt;br&gt;&lt;/i&gt;" style="rounded=0;whiteSpace=wrap;html=1;" parent="1" vertex="1">
          <mxGeometry x="325" y="440" width="170" height="90" as="geometry" />
        </mxCell>
        <mxCell id="cGY7G1IfKFJ4hQpmYUBs-6" value="Database&lt;br&gt;&amp;lt;technology not yet chosen&amp;gt;&lt;br&gt;&lt;i&gt;Stores planetary systems&lt;br&gt;Stores user data&lt;br&gt;&lt;/i&gt;" style="rounded=0;whiteSpace=wrap;html=1;" parent="1" vertex="1">
          <mxGeometry x="325" y="600" width="170" height="90" as="geometry" />
        </mxCell>
        <mxCell id="cGY7G1IfKFJ4hQpmYUBs-7" value="evoPlanet" style="shape=umlFrame;whiteSpace=wrap;html=1;pointerEvents=0;" parent="1" vertex="1">
          <mxGeometry x="270" y="240" width="510" height="470" as="geometry" />
        </mxCell>
        <mxCell id="cGY7G1IfKFJ4hQpmYUBs-9" value="" style="endArrow=classic;html=1;rounded=0;" parent="1" source="cGY7G1IfKFJ4hQpmYUBs-14" target="cGY7G1IfKFJ4hQpmYUBs-5" edge="1">
          <mxGeometry width="50" height="50" relative="1" as="geometry">
            <mxPoint x="30" y="190" as="sourcePoint" />
            <mxPoint x="80" y="140" as="targetPoint" />
          </mxGeometry>
        </mxCell>
        <mxCell id="cGY7G1IfKFJ4hQpmYUBs-10" value="" style="endArrow=classic;html=1;rounded=0;" parent="1" source="cGY7G1IfKFJ4hQpmYUBs-14" target="cGY7G1IfKFJ4hQpmYUBs-2" edge="1">
          <mxGeometry width="50" height="50" relative="1" as="geometry">
            <mxPoint x="40" y="200" as="sourcePoint" />
            <mxPoint x="90" y="150" as="targetPoint" />
          </mxGeometry>
        </mxCell>
        <mxCell id="cGY7G1IfKFJ4hQpmYUBs-11" value="" style="endArrow=classic;html=1;rounded=0;" parent="1" source="cGY7G1IfKFJ4hQpmYUBs-1" target="cGY7G1IfKFJ4hQpmYUBs-14" edge="1">
          <mxGeometry width="50" height="50" relative="1" as="geometry">
            <mxPoint x="50" y="210" as="sourcePoint" />
            <mxPoint x="100" y="160" as="targetPoint" />
          </mxGeometry>
        </mxCell>
        <mxCell id="cGY7G1IfKFJ4hQpmYUBs-14" value="Browser&lt;br&gt;&lt;i&gt;Renders planetary systems&lt;br&gt;Lists available systems&lt;br&gt;&lt;/i&gt;" style="rounded=0;whiteSpace=wrap;html=1;" parent="1" vertex="1">
          <mxGeometry x="600" y="270" width="170" height="90" as="geometry" />
        </mxCell>
        <mxCell id="cGY7G1IfKFJ4hQpmYUBs-15" value="Requests page" style="text;html=1;align=center;verticalAlign=middle;resizable=0;points=[];autosize=1;strokeColor=none;fillColor=none;" parent="1" vertex="1">
          <mxGeometry x="495" y="290" width="100" height="30" as="geometry" />
        </mxCell>
        <mxCell id="cGY7G1IfKFJ4hQpmYUBs-17" value="Subscribes to planetary system state changes&lt;br&gt;Requests planetary system operations" style="text;html=1;align=center;verticalAlign=middle;resizable=0;points=[];autosize=1;strokeColor=none;fillColor=none;" parent="1" vertex="1">
          <mxGeometry x="395" y="373" width="270" height="40" as="geometry" />
        </mxCell>
        <mxCell id="cGY7G1IfKFJ4hQpmYUBs-18" value="" style="endArrow=classic;html=1;rounded=0;" parent="1" source="cGY7G1IfKFJ4hQpmYUBs-5" target="cGY7G1IfKFJ4hQpmYUBs-6" edge="1">
          <mxGeometry width="50" height="50" relative="1" as="geometry">
            <mxPoint x="30" y="190" as="sourcePoint" />
            <mxPoint x="80" y="140" as="targetPoint" />
          </mxGeometry>
        </mxCell>
        <mxCell id="cGY7G1IfKFJ4hQpmYUBs-19" value="Loads static planet systems&lt;br&gt;Creates, updates, deletes static planet systems" style="text;html=1;align=center;verticalAlign=middle;resizable=0;points=[];autosize=1;strokeColor=none;fillColor=none;" parent="1" vertex="1">
          <mxGeometry x="285" y="543" width="270" height="40" as="geometry" />
        </mxCell>
      </root>
    </mxGraphModel>
  </diagram>
</mxfile>
